<svg width="100%" height="100%" viewBox="0 0 183 35" xmlns="http://www.w3.org/2000/svg" aria-hidden="true">
  <path d="M36.694 18.975 48.943 6.626 47.341 5.012 35.092 17.361 36.694 18.975Z" fill="#b8ee4b"/>
  <path d="M40.954 20.093 53.03 8.017 51.416 6.403 39.34 18.479 40.954 20.093Z" fill="#b8ee4b"/>
  <rect x="37.215" y="17.411" width="2.459" height="7.152" fill="#b8ee4b"/>
  <path d="M14.632 4.173 11.279 5.804 10.932 5.973 4.446 30.826 10.881 30.826 15.383 13.594 32.616 30.826 41.285 30.826 14.632 4.173Z" fill="#b8ee4b"/>
  <path d="M4.722 26.007 3.683 29.988H0V28.176L4.722 26.007ZM27.385 15.595 39.945 9.824H43.705L47.464 13.583V19.963L43.819 23.608 39.201 18.928 38.025 20.088 47.793 29.988H41.778L27.385 15.595ZM14.232 21.637 19.644 19.151 27.609 27.116 20.962 29.988H12.05L14.232 21.637Z" fill="#b8ee4b"/>
  <path d="M64.001 30V11.009H68.501V26.224H79.443V30H64.001ZM90.405 30.633C84.211 30.633 79.983 26.473 79.983 20.505S84.211 10.376 90.405 10.376 100.85 14.536 100.85 20.505 96.623 30.633 90.405 30.633ZM90.405 26.722C93.796 26.722 96.374 24.235 96.374 20.505S93.796 14.287 90.405 14.287 84.437 16.774 84.437 20.505 87.037 26.722 90.405 26.722ZM112.638 30.633C106.488 30.633 102.238 26.473 102.238 20.505S106.488 10.376 112.638 10.376C116.798 10.376 121.071 12.23 121.997 17.814H117.679C116.865 15.372 114.989 14.287 112.638 14.287 109.269 14.287 106.692 16.842 106.692 20.505 106.692 24.144 109.269 26.722 112.638 26.722 114.989 26.722 116.865 25.637 117.679 23.172H121.997C121.071 28.779 116.843 30.633 112.638 30.633ZM132.77 30.633C126.914 30.633 123.613 27.875 123.613 22.087V11.009H128.158V21.974C128.158 25.004 129.672 26.835 132.77 26.835S137.404 25.004 137.404 21.974V11.009H141.926V22.087C141.926 27.875 138.625 30.633 132.77 30.633ZM152.22 30.633C146.432 30.633 143.38 28.576 143.403 24.122H147.472C147.63 25.908 149.1 27.038 152.22 27.061 155.159 27.061 156.764 26.066 156.764 24.574 156.764 23.263 155.702 22.607 153.441 22.223L151.089 21.816C147.495 21.183 143.923 20.233 143.923 16.096 143.923 12.501 146.952 10.376 152.265 10.376 157.216 10.376 160.653 12.117 160.698 16.819H156.651C156.357 15.101 155.023 13.948 152.175 13.948 149.597 13.948 148.241 14.83 148.241 16.299 148.241 17.452 149.168 18.176 151.112 18.538L153.169 18.899C156.787 19.555 161.241 20.165 161.241 24.71 161.241 28.485 158.143 30.633 152.22 30.633ZM180.394 11.009V14.785H173.272V30H168.751V14.785H161.652V11.009H180.394Z" fill="currentColor"/>
</svg>
